<?xml version="1.0" encoding="utf-8"?>
<!-- Generator: Adobe Illustrator 23.0.1, SVG Export Plug-In . SVG Version: 6.00 Build 0)  -->
<svg version="1.1" id="Layer_1" xmlns="http://www.w3.org/2000/svg" xmlns:xlink="http://www.w3.org/1999/xlink" x="0px" y="0px"
	 viewBox="0 0 46.6 38.5" style="enable-background:new 0 0 46.6 38.5;" xml:space="preserve">
<style type="text/css">
	.st0{fill:none;}
	.st1{fill:#49A2DA;}
</style>
<path id="SVGID_x5F_1_x5F_" class="st0" d="M-26.6,28.3C-26.6,2.7-5.9-18,19.7-18S66,2.7,66,28.3"/>
<text transform="matrix(1 0 0 1 -32.5882 -32.6114)" style="font-family:'ArialMT'; font-size:12px;"> </text>
<polygon class="st1" points="31.2,36.2 27.4,24.7 24.1,23.5 "/>
<path class="st1" d="M20.5,9.8c-0.6-2.7-2.3-5-4.7-6C13.4,2.7,11,3.1,9.1,3.9C6,5.3,3.8,8.2,3,11.6c-3.1,12.9,6.5,24.5,6.5,24.5
	C6,29,5.4,23.1,5.6,18.5c4.9,1.6,10.2-0.3,10.2-0.3C20.8,16.3,21.1,12.6,20.5,9.8z"/>
<path class="st1" d="M40.2,15c-8.1-4.9-25.5,5-25.5,5L22,36.1h2.4H28l-4-12.7l7.1,12.7h4.6L32.8,27l5.5,9.1h1h2.2
	C48.2,18.6,40.2,15,40.2,15z"/>
</svg>
